<svg width="195" height="80" viewBox="0 0 195 80" fill="none" xmlns="http://www.w3.org/2000/svg">
<g clip-path="url(#clip0_5090_25591)">
<path d="M42.0574 29.1926C42.1696 29.2541 42.2834 29.3085 42.3987 29.3592C44.4443 30.2586 46.8733 29.459 47.9656 27.4619C49.058 25.4648 48.4207 22.9884 46.5595 21.7516C46.4549 21.682 46.3476 21.6157 46.2355 21.5542C44.1262 20.4004 41.4811 21.1757 40.3278 23.285C39.1745 25.3942 39.9488 28.0393 42.0585 29.1926H42.0574Z" fill="white"/>
<path d="M46.6113 38.3786C46.6264 37.681 46.5693 37.0081 46.4485 36.3643C45.9303 33.6005 44.2341 31.3775 42.0101 30.0469C41.5604 29.7778 41.0897 29.5444 40.6023 29.3514C37.8784 28.2725 34.6466 28.4234 31.8408 30.3159L24.8979 34.9975L25.5633 35.3615L29.2081 37.3548L33.6583 34.3538C35.6279 33.0258 37.9571 33.1762 39.6911 34.2793C40.8363 35.0078 41.7221 36.1503 42.071 37.5602C42.1799 38.0001 42.2365 38.4665 42.2327 38.9539C42.2327 38.9809 42.2327 39.0073 42.2327 39.0343L42.1179 44.2949L42.801 43.8339L46.4695 41.3602C46.4954 41.343 46.5213 41.3263 46.5477 41.3096L46.6113 38.3792V38.3786Z" fill="white"/>
<path d="M16.942 50.807C16.8299 50.7455 16.7161 50.6911 16.6007 50.6404C14.5551 49.741 12.1262 50.5406 11.0338 52.5377C9.94146 54.5348 10.5788 57.0112 12.44 58.248C12.5446 58.3176 12.6519 58.3839 12.764 58.4454C14.8732 59.5992 17.5184 58.8239 18.6717 56.7146C19.8249 54.6054 19.0507 51.9603 16.9409 50.807H16.942Z" fill="white"/>
<path d="M12.3887 41.6214C12.3736 42.319 12.4308 42.9919 12.5516 43.6357C13.0697 46.3995 14.7659 48.6225 16.99 49.9531C17.4397 50.2222 17.9103 50.4556 18.3978 50.6487C21.1216 51.7275 24.3534 51.5766 27.1592 49.6841L34.1021 45.0025L33.4368 44.6385L29.792 42.6452L25.3417 45.6463C23.3721 46.9742 21.0429 46.8238 19.3089 45.7207C18.1638 44.9922 17.2779 43.8497 16.9291 42.4398C16.8201 41.9999 16.7635 41.5335 16.7673 41.0461C16.7673 41.0191 16.7673 40.9927 16.7673 40.9657L16.8822 35.7051L16.199 36.1661L12.5305 38.6398C12.5046 38.657 12.4788 38.6737 12.4524 38.6904L12.3887 41.6208V41.6214Z" fill="white"/>
<path d="M40.3073 52.5572C40.2459 52.6693 40.1914 52.7831 40.1407 52.8985C39.2414 54.9441 40.041 57.373 42.0381 58.4654C44.0352 59.5578 46.5115 58.9205 47.7484 57.0592C47.818 56.9547 47.8843 56.8474 47.9457 56.7352C49.0996 54.626 48.3242 51.9808 46.215 50.8275C44.1058 49.6743 41.4606 50.4485 40.3073 52.5583V52.5572Z" fill="white"/>
<path d="M31.121 57.1118C31.8187 57.1269 32.4916 57.0697 33.1353 56.949C35.8991 56.4308 38.1221 54.7346 39.4528 52.5105C39.7218 52.0609 39.9553 51.5902 40.1483 51.1028C41.2272 48.3789 41.0762 45.1471 39.1837 42.3413L34.5021 35.3984L34.1382 36.0638L32.1449 39.7085L35.1459 44.1588C36.4739 46.1284 36.3234 48.4576 35.2203 50.1916C34.4919 51.3368 33.3494 52.2226 31.9395 52.5715C31.4995 52.6804 31.0331 52.737 30.5457 52.7332C30.5187 52.7332 30.4923 52.7332 30.4654 52.7332L25.2047 52.6184L25.6657 53.3015L28.1394 56.97C28.1567 56.9959 28.1734 57.0218 28.1901 57.0482L31.1205 57.1118H31.121Z" fill="white"/>
<path d="M18.6926 27.442C18.7541 27.3299 18.8085 27.2161 18.8592 27.1007C19.7586 25.0551 18.959 22.6262 16.9619 21.5338C14.9648 20.4425 12.4884 21.0798 11.2516 22.9405C11.182 23.0451 11.1157 23.1524 11.0542 23.2645C9.90042 25.3738 10.6757 28.0189 12.785 29.1722C14.8942 30.3255 17.5393 29.5512 18.6926 27.4415V27.442Z" fill="white"/>
<path d="M27.879 22.8891C27.1813 22.874 26.5084 22.9311 25.8647 23.0519C23.1009 23.5701 20.8779 25.2663 19.5472 27.4904C19.2782 27.94 19.0447 28.4107 18.8517 28.8981C17.7728 31.622 17.9238 34.8538 19.8163 37.6596L24.4979 44.6025L24.8618 43.9371L26.8551 40.2924L23.8541 35.8421C22.5262 33.8725 22.6766 31.5433 23.7797 29.8093C24.5081 28.6641 25.6506 27.7783 27.0606 27.4294C27.5005 27.3205 27.9669 27.2639 28.4543 27.2677C28.4813 27.2677 28.5077 27.2677 28.5346 27.2677L33.7953 27.3825L33.3343 26.6994L30.8606 23.0309C30.8434 23.005 30.8266 22.9791 30.8099 22.9527L27.8795 22.8891H27.879Z" fill="white"/>
</g>
<path d="M92.42 26.08V54H86.82V42.12H74.86V54H69.26V26.08H74.86V37.56H86.82V26.08H92.42ZM113.132 54L106.972 43.12H104.332V54H98.7319V26.08H109.212C111.372 26.08 113.212 26.4667 114.732 27.24C116.252 27.9867 117.385 29.0133 118.132 30.32C118.905 31.6 119.292 33.04 119.292 34.64C119.292 36.48 118.759 38.1467 117.692 39.64C116.625 41.1067 115.039 42.12 112.932 42.68L119.612 54H113.132ZM104.332 38.92H109.012C110.532 38.92 111.665 38.56 112.412 37.84C113.159 37.0933 113.532 36.0667 113.532 34.76C113.532 33.48 113.159 32.4933 112.412 31.8C111.665 31.08 110.532 30.72 109.012 30.72H104.332V38.92ZM155.597 26.08V54H149.997V35.84L142.517 54H138.277L130.757 35.84V54H125.157V26.08H131.517L140.397 46.84L149.277 26.08H155.597ZM171.573 54.28C169.627 54.28 167.867 53.9467 166.293 53.28C164.747 52.6133 163.52 51.6533 162.613 50.4C161.707 49.1467 161.24 47.6667 161.213 45.96H167.213C167.293 47.1067 167.693 48.0133 168.413 48.68C169.16 49.3467 170.173 49.68 171.453 49.68C172.76 49.68 173.787 49.3733 174.533 48.76C175.28 48.12 175.653 47.2933 175.653 46.28C175.653 45.4533 175.4 44.7733 174.893 44.24C174.387 43.7067 173.747 43.2933 172.973 43C172.227 42.68 171.187 42.3333 169.853 41.96C168.04 41.4267 166.56 40.9067 165.413 40.4C164.293 39.8667 163.32 39.08 162.493 38.04C161.693 36.9733 161.293 35.56 161.293 33.8C161.293 32.1467 161.707 30.7067 162.533 29.48C163.36 28.2533 164.52 27.32 166.013 26.68C167.507 26.0133 169.213 25.68 171.133 25.68C174.013 25.68 176.347 26.3867 178.133 27.8C179.947 29.1867 180.947 31.1333 181.133 33.64H174.973C174.92 32.68 174.507 31.8933 173.733 31.28C172.987 30.64 171.987 30.32 170.733 30.32C169.64 30.32 168.76 30.6 168.093 31.16C167.453 31.72 167.133 32.5333 167.133 33.6C167.133 34.3467 167.373 34.9733 167.853 35.48C168.36 35.96 168.973 36.36 169.693 36.68C170.44 36.9733 171.48 37.32 172.813 37.72C174.627 38.2533 176.107 38.7867 177.253 39.32C178.4 39.8533 179.387 40.6533 180.213 41.72C181.04 42.7867 181.453 44.1867 181.453 45.92C181.453 47.4133 181.067 48.8 180.293 50.08C179.52 51.36 178.387 52.3867 176.893 53.16C175.4 53.9067 173.627 54.28 171.573 54.28Z" fill="white"/>
<defs>
<clipPath id="clip0_5090_25591">
<rect width="48" height="38" fill="white" transform="translate(10.5 21)"/>
</clipPath>
</defs>
</svg>
